<svg width="40" height="41" viewBox="0 0 40 41" fill="none" xmlns="http://www.w3.org/2000/svg">
    <path d="M34 16.5C34 19.26 29.76 21.5 27 21.5C24.24 21.5 21.5 19.26 21.5 16.5H18.5C18.5 19.26 15.76 21.5 13 21.5C10.24 21.5 6 19.26 6 16.5H4.5C4.18 17.78 4 19.12 4 20.5C4 24.7435 5.68571 28.8131 8.68629 31.8137C11.6869 34.8143 15.7565 36.5 20 36.5C24.2435 36.5 28.3131 34.8143 31.3137 31.8137C34.3143 28.8131 36 24.7435 36 20.5C36 19.12 35.82 17.78 35.5 16.5H34ZM20 4.5C14.08 4.5 8.9 7.72 6.14 12.5H33.86C31.1 7.72 25.92 4.5 20 4.5ZM40 20.5C40 25.8043 37.8929 30.8914 34.1421 34.6421C30.3914 38.3929 25.3043 40.5 20 40.5C17.3736 40.5 14.7728 39.9827 12.3463 38.9776C9.91982 37.9725 7.71504 36.4993 5.85786 34.6421C2.10714 30.8914 0 25.8043 0 20.5C0 15.1957 2.10714 10.1086 5.85786 6.35786C9.60859 2.60714 14.6957 0.5 20 0.5C22.6264 0.5 25.2272 1.01732 27.6537 2.02241C30.0802 3.0275 32.285 4.50069 34.1421 6.35786C35.9993 8.21504 37.4725 10.4198 38.4776 12.8463C39.4827 15.2728 40 17.8736 40 20.5ZM20 30.96C16.5 30.96 13.42 29.5 11.62 27.34L14.46 24.5C15.36 25.94 17.5 26.96 20 26.96C22.5 26.96 24.64 25.94 25.54 24.5L28.38 27.34C26.58 29.5 23.5 30.96 20 30.96Z" fill="#6A6A6A"/>
</svg>
